<svg width="1051" height="705" viewBox="0 0 1051 705" fill="none" xmlns="http://www.w3.org/2000/svg">
<g clip-path="url(#clip0_28_196)">
<path d="M1050.86 374.353C1050.86 516.823 960.562 638.213 834.082 684.403C814.841 691.444 794.98 696.657 774.762 699.973C719.14 709.095 662.111 703.916 609.042 684.923C481.762 639.113 390.802 517.313 390.862 374.283C390.862 192.103 538.612 44.3529 720.862 44.3529C789.74 44.2527 856.908 65.8012 912.872 105.953C996.422 165.813 1050.86 263.723 1050.86 374.353Z" fill="#353E4A"/>
<path d="M834.082 684.403C814.841 691.443 794.98 696.656 774.762 699.973C719.14 709.095 662.111 703.916 609.042 684.923L624.282 623.773L625.202 620.103L656.302 620.223L812.542 620.783L814.542 626.693L834.082 684.403Z" fill="#2F2E41"/>
<path d="M286.651 0H0V324.355H286.651V0Z" fill="#E6E6E6"/>
<path d="M281.039 6.86206H5.11099V317.494H281.039V6.86206Z" fill="#353E4A"/>
<path d="M143.326 306.449C151.868 306.449 158.793 299.524 158.793 290.982C158.793 282.44 151.868 275.515 143.326 275.515C134.784 275.515 127.859 282.44 127.859 290.982C127.859 299.524 134.784 306.449 143.326 306.449Z" fill="#E6E6E6"/>
<path d="M140.713 116.819H51.876V125.907H140.713V116.819Z" fill="#E6E6E6"/>
<path d="M185.955 144.052H51.876V153.14H185.955V144.052Z" fill="#C6FF41"/>
<path d="M172.794 171.456H51.876V180.544H172.794V171.456Z" fill="#E6E6E6"/>
<path d="M238.599 198.136H51.876V207.224H238.599V198.136Z" fill="#C6FF41"/>
<path d="M205.992 223.545H53.817V232.633H205.992V223.545Z" fill="#E6E6E6"/>
<path d="M407.609 527.791C408.699 528.91 409.699 530.114 410.6 531.391L550.709 527.963L567.054 498.095L615.354 516.871L591.554 572.558C589.631 577.056 586.302 580.81 582.064 583.255C577.827 585.7 572.911 586.705 568.054 586.119L409.754 566.996C406.02 571.723 400.935 575.201 395.176 576.968C389.417 578.735 383.256 578.707 377.514 576.887C371.771 575.067 366.719 571.542 363.028 566.78C359.338 562.019 357.185 556.247 356.855 550.232C356.525 544.217 358.034 538.244 361.182 533.108C364.33 527.971 368.966 523.915 374.476 521.478C379.985 519.041 386.105 518.339 392.023 519.466C397.941 520.593 403.375 523.494 407.604 527.785L407.609 527.791Z" fill="#9F616A"/>
<path d="M596.189 357.241L661.758 335.752L681.016 309.341L774.732 314.887L788.491 345.707L838.463 369.32L830.783 511.944L817.645 645.421C750.087 610.438 624.006 637.109 622.902 637.543L596.189 357.241Z" fill="#C6FF41"/>
<path d="M610.206 550.291L543.512 523.607L543.796 522.42C544.082 521.22 572.468 402.603 576.237 383.541C580.163 363.682 594.508 358.191 595.117 357.968L595.562 357.804L621.956 365.838L633.548 456.919L610.206 550.291Z" fill="#C6FF41"/>
<path d="M754.211 639.554C755.774 639.517 757.338 639.603 758.888 639.812L851.635 534.74L840.847 502.454L887.455 479.802L912.11 535.115C914.102 539.583 914.591 544.577 913.503 549.347C912.415 554.117 909.809 558.405 906.076 561.568L784.426 664.641C785.353 670.593 784.446 676.686 781.825 682.11C779.204 687.534 774.995 692.032 769.756 695.005C764.516 697.978 758.496 699.286 752.496 698.754C746.495 698.222 740.799 695.876 736.165 692.028C731.53 688.18 728.177 683.012 726.551 677.212C724.925 671.412 725.103 665.254 727.062 659.557C729.021 653.861 732.668 648.896 737.518 645.323C742.367 641.749 748.19 639.737 754.211 639.554Z" fill="#9F616A"/>
<path d="M844.232 544.968L805.543 453.962L820.633 390.571L836.892 370.03C838.083 369.52 839.366 369.264 840.661 369.276C841.956 369.288 843.235 369.568 844.416 370.1C850.416 372.513 855.516 379.91 859.593 392.084L895.852 495.363L844.232 544.968Z" fill="#C6FF41"/>
<path d="M643.503 275.619V207.009C643.463 194.935 645.801 182.972 650.385 171.803C654.968 160.633 661.707 150.475 670.215 141.91C678.724 133.344 688.837 126.539 699.976 121.882C711.115 117.224 723.062 114.807 735.136 114.767C747.209 114.727 759.172 117.065 770.342 121.648C781.512 126.232 791.669 132.97 800.235 141.479C808.8 149.988 815.606 160.101 820.263 171.24C824.92 182.379 827.338 194.326 827.378 206.4C827.379 206.603 827.379 206.806 827.378 207.009V275.619C827.374 278.893 826.072 282.032 823.757 284.347C821.441 286.663 818.302 287.965 815.028 287.969H655.853C652.579 287.965 649.44 286.663 647.124 284.347C644.809 282.032 643.507 278.893 643.503 275.619Z" fill="#2F2E41"/>
<path d="M716.548 286.37C753.775 286.37 783.953 256.192 783.953 218.965C783.953 181.738 753.775 151.56 716.548 151.56C679.321 151.56 649.143 181.738 649.143 218.965C649.143 256.192 679.321 286.37 716.548 286.37Z" fill="#9F616A"/>
<path d="M621.753 212.498C621.775 193.216 629.444 174.73 643.078 161.096C656.712 147.462 675.198 139.792 694.48 139.771H708.203C727.485 139.792 745.97 147.462 759.604 161.096C773.238 174.73 780.908 193.216 780.929 212.498V213.87H751.929L742.038 186.17L740.06 213.87H725.074L720.084 199.896L719.084 213.87H621.753V212.498Z" fill="#2F2E41"/>
<path d="M709.915 295.684C708.554 293.841 707.74 291.65 707.569 289.365C707.398 287.079 707.876 284.792 708.948 282.766C723.489 255.108 743.848 204.001 716.825 172.483L714.887 170.221H793.343V288.011L722.072 300.586C721.351 300.714 720.62 300.779 719.887 300.779C717.941 300.779 716.023 300.318 714.291 299.433C712.558 298.548 711.06 297.264 709.92 295.687L709.915 295.684Z" fill="#2F2E41"/>
<path d="M143.077 25.2622C136.572 25.2619 130.212 27.1906 124.803 30.8044C119.394 34.4182 115.178 39.5549 112.688 45.5648C110.199 51.5746 109.547 58.1879 110.816 64.5682C112.085 70.9484 115.217 76.8092 119.816 81.4093C124.416 86.0094 130.277 89.1423 136.657 90.4117C143.037 91.6811 149.65 91.0301 155.66 88.541C161.67 86.0519 166.807 81.8364 170.422 76.4278C174.036 71.0191 175.966 64.66 175.966 58.1548V58.1531C175.966 53.8338 175.115 49.5568 173.462 45.5663C171.809 41.5758 169.387 37.9499 166.332 34.8957C163.278 31.8415 159.652 29.4188 155.662 27.7659C151.671 26.1129 147.394 25.2622 143.075 25.2622H143.077ZM143.077 35.1286C145.028 35.1286 146.936 35.7072 148.558 36.7914C150.181 37.8755 151.445 39.4164 152.192 41.2192C152.939 43.0221 153.134 45.0059 152.754 46.9198C152.373 48.8337 151.433 50.5917 150.053 51.9715C148.674 53.3514 146.916 54.2911 145.002 54.6718C143.088 55.0525 141.104 54.8571 139.301 54.1104C137.498 53.3636 135.957 52.099 134.873 50.4765C133.789 48.854 133.21 46.9464 133.21 44.995C133.21 42.3783 134.25 39.8687 136.1 38.0184C137.95 36.1681 140.46 35.1286 143.077 35.1286ZM143.077 82.6299C139.179 82.612 135.344 81.6435 131.905 79.8082C128.466 77.9729 125.527 75.3264 123.342 72.0981C123.501 65.5199 136.499 61.899 143.077 61.899C149.655 61.899 162.653 65.5199 162.811 72.0981C160.624 75.324 157.684 77.9688 154.246 79.8037C150.808 81.6387 146.974 82.6087 143.077 82.6299Z" fill="#C6FF41"/>
<path d="M143.459 296.911C157.009 272.08 189.469 256.355 216.022 270.529C227.974 276.908 237.475 288.192 240.491 301.529C243.991 317.022 236.616 331.795 229.003 344.811C224.871 351.876 220.343 358.797 216.923 366.249C213.382 373.966 210.851 382.885 213.517 391.28C215.917 398.843 221.935 404.344 228.525 408.387C235.798 412.68 243.535 416.136 251.586 418.687C268.159 424.199 285.641 426.461 303.071 425.348C311.734 424.759 320.324 423.371 328.731 421.2C337.674 418.92 346.45 416.03 355.408 413.8C370.364 410.085 387.417 408.238 401.599 415.7C415.377 422.952 421.543 438.119 423.45 452.874C426.972 480.12 416.169 508.394 396.664 527.474C387.306 536.628 375.53 544.191 362.704 547.285C351.513 549.985 337.143 549.812 328.237 541.446C318.299 532.109 320.637 517.137 328.53 507.286C338.605 494.717 355.673 491.698 370.904 491.392C388.23 491.044 405.54 493.624 422.856 492.02C431.308 491.362 439.601 489.362 447.424 486.094C454.301 483.069 460.574 478.824 465.939 473.565C476.629 463.179 483.839 449.343 487.424 434.957C491.741 417.657 490.8 399.475 487.449 382.098C485.663 373.138 483.363 364.287 480.561 355.591C479.404 351.921 473.609 353.491 474.775 357.186C485.095 389.91 490.849 427.749 470.91 458.132C462.659 471.017 449.804 480.27 434.967 484.005C417.71 488.294 399.602 486.174 382.058 485.536C365.376 484.929 347.058 485.584 332.758 495.3C321.027 503.269 312.822 518.427 316.368 532.737C319.787 546.537 333.049 553.537 346.313 554.615C360.23 555.749 373.925 551.078 385.613 543.774C409.926 528.581 426.092 501.861 429.475 473.532C431.238 458.771 429.444 442.871 422.75 429.473C419.223 422.22 413.733 416.102 406.903 411.812C400.093 407.637 392.227 405.582 384.327 404.855C366.379 403.202 349.135 409.364 332.109 414.078C323.412 416.601 314.496 418.303 305.481 419.161C296.731 419.886 287.931 419.743 279.209 418.733C270.555 417.712 262.026 415.819 253.752 413.083C245.644 410.577 237.882 407.067 230.644 402.636C224.259 398.553 218.737 392.705 218.423 384.736C218.082 376.095 222.439 368.012 226.583 360.727C234.77 346.336 244.883 332.26 247.018 315.413C248.888 300.676 242.958 286.151 232.718 275.64C227.586 270.305 221.408 266.087 214.57 263.25C207.732 260.414 200.383 259.019 192.981 259.155C177.788 259.59 163.241 266.197 152.066 276.344C146.524 281.38 141.86 287.304 138.266 293.874C136.415 297.265 141.594 300.296 143.447 296.902L143.459 296.911Z" fill="#A5A5A5"/>
</g>
<defs>
<clipPath id="clip0_28_196">
<rect width="1050.86" height="704.353" fill="white"/>
</clipPath>
</defs>
</svg>
